<?xml version="1.0" encoding="UTF-8"?>
<svg version="1.1" xmlns="http://www.w3.org/2000/svg" width="1024" height="1024">
<path d="M0 0 C0.6983515 -0.00282738 1.396703 -0.00565475 2.11621666 -0.00856781 C5.82951588 -0.02345173 9.54277751 -0.03274291 13.25610352 -0.03710938 C16.24679093 -0.04144405 19.23718169 -0.05515406 22.2277832 -0.078125 C49.60951472 -0.28381734 76.56802757 1.33801392 103.60546875 5.953125 C104.36287354 6.07940277 105.12027832 6.20568054 105.90063477 6.33578491 C150.22326724 13.7524647 193.20149637 27.35491752 233.98046875 46.203125 C235.43960693 46.86997314 235.43960693 46.86997314 236.92822266 47.55029297 C265.4671922 60.63204806 292.65773177 76.64523402 317.98046875 95.203125 C319.04523437 95.98300781 320.11 96.76289062 321.20703125 97.56640625 C324.15170104 99.75354226 327.07165733 101.96854139 329.98046875 104.203125 C330.5223584 104.61884766 331.06424805 105.03457031 331.62255859 105.46289062 C348.32690043 118.31604621 364.21863529 132.14993956 378.98046875 147.203125 C381.77961572 150.01675032 384.59748169 152.80968347 387.43359375 155.5859375 C393.9845156 162.02610327 400.25532806 168.44647448 405.9453125 175.66796875 C408.00935854 178.23911247 410.18211845 180.6556298 412.41796875 183.078125 C435.77588915 208.81621346 454.50915794 239.74222287 470.98046875 270.203125 C471.41858887 271.00556641 471.85670898 271.80800781 472.30810547 272.63476562 C515.82400595 352.55233582 534.8720054 445.70189609 519.98046875 618.203125 C519.66021729 619.76643555 519.66021729 619.76643555 519.33349609 621.36132812 C501.90166719 705.04452168 461.21005636 786.82851172 403.17578125 849.796875 C401.32103895 851.82983097 399.5080887 853.88797928 397.703125 855.96484375 C387.74696665 867.36796378 377.2884198 878.14475654 365.98046875 888.203125 C364.97155315 889.13281327 363.96508293 890.06516155 362.9609375 891 C356.50856892 897.00516447 349.86391658 902.69454572 342.98046875 908.203125 C341.84962918 909.12552875 340.7194536 910.04874696 339.58984375 910.97265625 C295.96418675 946.49590007 245.83450942 974.10941458 192.98046875 993.203125 C191.82869141 993.61949219 190.67691406 994.03585937 189.49023438 994.46484375 C101.8665015 1025.7418489 6.31894642 1031.27731879 -185.01953125 981.203125 C-186.00179688 980.77032227 -186.9840625 980.33751953 -187.99609375 979.89160156 C-230.99967375 960.87612966 -270.9066389 936.34195151 -307.01953125 906.203125 C-307.88336426 905.48793701 -307.88336426 905.48793701 -308.76464844 904.75830078 C-309.59851074 904.06776611 -309.59851074 904.06776611 -310.44921875 903.36328125 C-310.9272998 902.96761963 -311.40538086 902.57195801 -311.89794922 902.16430664 C-323.60764126 892.30193309 -334.64821298 881.76121939 -345.46875 870.93920898 C-347.27716251 869.13300305 -349.09348264 867.33500158 -350.91015625 865.53710938 C-357.02758814 859.44836562 -362.82029805 853.30810637 -368.16796875 846.5222168 C-369.95391341 844.28531169 -371.82412499 842.17665321 -373.76953125 840.078125 C-379.38849246 833.82242266 -384.37323185 827.05574883 -389.41748047 820.3359375 C-390.86293561 818.411601 -392.31750136 816.49453088 -393.7734375 814.578125 C-406.01185717 798.32535828 -416.85400332 781.06000522 -426.8125 763.33203125 C-427.93177555 761.35790447 -429.07809388 759.40340413 -430.23828125 757.453125 C-469.6031821 690.62889232 -491.94384312 606.47360602 -492.22265625 528.99609375 C-492.22971588 527.68436188 -492.23677551 526.37263 -492.24404907 525.02114868 C-492.26356938 520.81096841 -492.26874113 516.60084629 -492.26953125 512.390625 C-492.26982582 511.67273678 -492.27012039 510.95484856 -492.27042389 510.21520615 C-492.27184765 488.73930781 -492.06853321 467.50809415 -489.01953125 446.203125 C-488.92007202 445.4901123 -488.82061279 444.77709961 -488.71813965 444.04248047 C-476.12908316 353.86699606 -441.31410331 268.01996834 -376.515625 186.09765625 C-374.19791439 183.40998244 -371.97872932 180.66754995 -369.76953125 177.890625 C-359.99449166 165.93763799 -348.97300897 155.06515633 -338.08203125 144.140625 C-337.59184509 143.64776001 -337.10165894 143.15489502 -336.59661865 142.64709473 C-330.91787392 136.94479069 -325.1514911 131.41859392 -319.01953125 126.203125 C-317.93624663 125.25403284 -316.85416529 124.30356508 -315.7734375 123.3515625 C-306.83047515 115.55081734 -297.54151564 108.2819548 -288.01953125 101.203125 C-287.29749512 100.6654248 -286.57545898 100.12772461 -285.83154297 99.57373047 C-211.00939267 44.09494865 -124.2549016 12.13171758 0 0 Z " fill="#75C1AE" transform="translate(492.01953125,-0.203125)"/>
<path d="M0 0 C1.82526743 -0.00302679 3.65053358 -0.0069189 5.47579753 -0.01159257 C10.45228377 -0.02181356 15.42869749 -0.01970588 20.40518951 -0.01541197 C25.7877987 -0.01293392 31.17039091 -0.02197233 36.55299377 -0.02944946 C47.08375304 -0.04216926 57.61448677 -0.0439935 68.14525242 -0.0416492 C76.71069764 -0.03986259 85.27613514 -0.04162303 93.84157944 -0.04587364 C95.67366369 -0.04676643 95.67366369 -0.04676643 97.54275974 -0.04767724 C100.02444737 -0.04888906 102.50613501 -0.0501032 104.98782264 -0.05131962 C128.23849442 -0.06218499 151.48915168 -0.0600376 174.73982428 -0.05393478 C195.97694131 -0.0487683 217.21401244 -0.06001575 238.45112039 -0.07903299 C260.29145068 -0.09843945 282.13175927 -0.10666236 303.97209823 -0.10290974 C316.22003241 -0.10100173 328.46792753 -0.10344606 340.71585464 -0.11762428 C351.14455291 -0.12957498 361.57318809 -0.13090187 372.00188728 -0.11883412 C377.3148832 -0.11297085 382.62776397 -0.11177475 387.94075203 -0.12383652 C392.81904045 -0.13478195 397.69711876 -0.13149047 402.57539771 -0.11757483 C404.3256478 -0.11495147 406.07591482 -0.11721864 407.82614817 -0.1253107 C452.69323121 -0.31809493 495.11966154 14.82657523 527.51950073 46.26069641 C529.1861674 47.92736308 530.85283407 49.59402974 532.51950073 51.26069641 C533.13051636 51.82530579 533.74153198 52.38991516 534.37106323 52.97163391 C553.77587904 71.17967694 566.7812368 97.85251096 573.51950073 123.26069641 C573.79407104 124.26745422 574.06864136 125.27421204 574.35153198 126.31147766 C578.8800012 144.22458497 580.378687 164.18560604 578.02731323 182.52632141 C577.37085265 187.77859166 577.36506245 193.02413246 577.28097534 198.31147766 C576.58197568 240.70944424 563.59723697 280.49532057 533.96481323 311.63960266 C531.50705199 314.20724998 531.50705199 314.20724998 529.40231323 316.90913391 C508.94577562 342.45858545 469.1062029 360.01334293 437.41403198 363.95991516 C436.45883667 364.05917297 435.50364136 364.15843079 434.51950073 364.26069641 C433.65711792 364.37026672 432.79473511 364.47983704 431.90621948 364.59272766 C390.09771306 369.13055397 346.74894862 358.79014163 313.39450073 332.61616516 C312.44575073 331.83886047 311.49700073 331.06155579 310.51950073 330.26069641 C309.97422729 329.81548645 309.42895386 329.37027649 308.86715698 328.91157532 C295.33585229 317.81575205 284.34798827 305.7997285 274.51950073 291.26069641 C274.08379761 290.63807922 273.64809448 290.01546204 273.19918823 289.37397766 C270.51950073 285.504359 270.51950073 285.504359 270.51950073 283.26069641 C253.10755032 283.01702161 235.69753609 282.86569547 218.28399181 282.82285309 C210.19747575 282.80082886 202.11322402 282.74913972 194.02755737 282.62641907 C186.97588253 282.51946845 179.9264279 282.46939391 172.87392312 282.48624754 C169.1419797 282.49321504 165.41497564 282.47264467 161.68398094 282.38381958 C146.80968379 281.39051829 146.80968379 281.39051829 133.24310684 285.80784607 C129.63904401 289.47015687 127.49068133 293.55553607 125.49553871 298.24473572 C123.87973296 301.58210676 121.52424824 304.24905106 119.08200073 307.01069641 C118.60181645 307.56317802 118.12163218 308.11565964 117.62689686 308.68488312 C99.73156656 329.15906479 78.41286424 343.46269357 53.51950073 354.26069641 C51.81793823 355.00126282 51.81793823 355.00126282 50.08200073 355.75679016 C24.01105288 366.01264097 -8.05409751 368.54662186 -35.48049927 363.26069641 C-36.15919067 363.13710754 -36.83788208 363.01351868 -37.53713989 362.88618469 C-70.38896539 356.80933356 -98.19972285 340.85748349 -122.48049927 318.26069641 C-123.19721802 317.60971985 -123.91393677 316.95874329 -124.65237427 316.28804016 C-136.70333318 304.87481448 -145.98707505 290.98219167 -153.48049927 276.26069641 C-153.79712524 275.65048645 -154.11375122 275.04027649 -154.43997192 274.41157532 C-161.23239957 261.19915079 -165.51236937 247.15466564 -168.79299927 232.69819641 C-168.95244019 231.99718811 -169.1118811 231.29617981 -169.27615356 230.57392883 C-171.36437093 220.8216197 -171.64587838 211.14514632 -171.60549927 201.19819641 C-171.60139038 199.95247864 -171.59728149 198.70676086 -171.5930481 197.42329407 C-171.56968296 193.36881467 -171.53093336 189.31491265 -171.48049927 185.26069641 C-171.46759857 184.21012054 -171.46759857 184.21012054 -171.45443726 183.13832092 C-171.233734 166.35386228 -170.95880094 149.74533378 -167.48049927 133.26069641 C-167.21211829 131.85577749 -166.94389002 130.45082938 -166.67581177 129.04585266 C-160.72691215 99.61087423 -145.12541876 72.77597507 -124.48049927 51.26069641 C-123.60264771 50.31968079 -122.72479614 49.37866516 -121.82034302 48.40913391 C-109.83884273 35.79735251 -95.92402978 26.16589945 -80.48049927 18.26069641 C-79.85288696 17.93730286 -79.22527466 17.6139093 -78.5786438 17.28071594 C-69.18644829 12.50514764 -59.62537394 9.06536935 -49.48049927 6.26069641 C-48.81373169 6.07378235 -48.14696411 5.88686829 -47.45999146 5.69429016 C-31.61633948 1.30988333 -16.36221776 -0.03886863 0 0 Z " fill="#F1F1F1" transform="translate(309.4804992675781,373.7393035888672)"/>
<path d="M0 0 C0.33 0 0.66 0 1 0 C0.99887207 0.88333008 0.99774414 1.76666016 0.99658203 2.67675781 C1.08239543 31.53244472 4.45568807 57.57933424 17 84 C17.32726074 84.69867187 17.65452148 85.39734375 17.99169922 86.1171875 C25.69220749 102.27667816 36.5301129 116.26251876 49 129 C49.68449219 129.73476563 50.36898437 130.46953125 51.07421875 131.2265625 C71.38767752 152.60466796 101.39442803 167.01544255 130 173 C131.13179687 173.25370361 132.26359375 173.50740723 133.4296875 173.76879883 C142.9493002 175.80877523 152.09540731 176.44252209 161.81884766 176.33618164 C164.13088699 176.31243955 166.44177419 176.31567349 168.75390625 176.32226562 C177.99086688 176.3050703 186.88344046 175.62301822 196 174 C196.77778809 173.864729 197.55557617 173.72945801 198.35693359 173.59008789 C229.55130534 167.75195107 256.72851536 150.91417532 280 130 C280.67546875 129.39800781 281.3509375 128.79601562 282.046875 128.17578125 C285.85209934 124.57893824 289.1082756 120.51992171 292.375 116.4375 C292.79740967 115.91430176 293.21981934 115.39110352 293.6550293 114.85205078 C294.085979 114.30145996 294.51692871 113.75086914 294.9609375 113.18359375 C295.43133453 112.6062146 295.90173157 112.02883545 296.38638306 111.43395996 C298.16985204 108.95681173 298.16985204 108.95681173 299.20878601 105.59555054 C300.94672253 101.16299138 302.97409613 97.6856193 307 95 C315.88270835 92.32312339 325.63999832 92.98086305 334.84365726 93.08651137 C337.8159507 93.11195088 340.78725793 93.09243099 343.75954205 93.07270604 C350.77663282 93.02627409 357.79103297 93.0496038 364.80786133 93.11987305 C372.02574594 93.19120153 379.2375866 93.1577763 386.45515865 93.07038611 C392.67250714 92.99808669 398.88802492 92.98471761 405.10569912 93.01928788 C408.81035927 93.03971524 412.51194501 93.04001103 416.2163372 92.98613548 C438.60349317 92.70015001 438.60349317 92.70015001 444.17366409 96.47183609 C447.53074045 99.91089384 449.45444153 103.71547543 451.1812458 108.15598488 C452.48674522 111.09625765 454.48767471 113.38172585 456.5625 115.8125 C457.30242187 116.68648437 458.04234375 117.56046875 458.8046875 118.4609375 C459.52914063 119.29882812 460.25359375 120.13671875 461 121 C461.68320312 121.81726563 462.36640625 122.63453125 463.0703125 123.4765625 C473.35261505 135.42831638 485.68109574 144.70520686 499 153 C500.64355469 154.04800781 500.64355469 154.04800781 502.3203125 155.1171875 C515.00897419 162.82637439 529.09457437 167.76135139 543.3125 171.875 C543.95541992 172.06602295 544.59833984 172.2570459 545.26074219 172.45385742 C557.81231096 175.87067336 571.06869398 176.41633486 584 176.375 C585.06550079 176.37318726 585.06550079 176.37318726 586.15252686 176.37133789 C614.00824386 176.24394776 639.59324771 169.49214715 664 156 C665.06347656 155.42507813 666.12695312 154.85015625 667.22265625 154.2578125 C678.57681281 147.89948483 688.56947624 139.92716771 698 131 C698.87269531 130.19175781 699.74539063 129.38351562 700.64453125 128.55078125 C712.93907873 116.78389675 722.24313967 103.08172204 730 88 C730.46913818 87.10643799 730.46913818 87.10643799 730.94775391 86.19482422 C735.05311685 78.29720069 738.08523317 70.21407901 740.8125 61.75 C741.1027002 60.8513623 741.39290039 59.95272461 741.69189453 59.02685547 C743.63831066 52.75353907 744.9598186 46.48299105 746 40 C746.33 40 746.66 40 747 40 C748.28125161 82.98106354 736.85246325 124.35816262 707.125 156.5625 C705.79855469 157.95662109 705.79855469 157.95662109 704.4453125 159.37890625 C701.98755126 161.94655357 701.98755126 161.94655357 699.8828125 164.6484375 C679.42627489 190.19788904 639.58670217 207.75264652 607.89453125 211.69921875 C606.93933594 211.79847656 605.98414063 211.89773438 605 212 C604.13761719 212.10957031 603.27523437 212.21914063 602.38671875 212.33203125 C560.57821233 216.86985756 517.22944789 206.52944522 483.875 180.35546875 C482.92625 179.57816406 481.9775 178.80085937 481 178 C480.18208984 177.33218506 480.18208984 177.33218506 479.34765625 176.65087891 C465.81635155 165.55505564 454.82848754 153.53903209 445 139 C444.56429688 138.37738281 444.12859375 137.75476563 443.6796875 137.11328125 C441 133.24366259 441 133.24366259 441 131 C423.58804959 130.7563252 406.17803536 130.60499905 388.76449108 130.56215668 C380.67797502 130.54013245 372.59372329 130.48844331 364.50805664 130.36572266 C357.4563818 130.25877204 350.40692717 130.2086975 343.35442239 130.22555113 C339.62247897 130.23251863 335.89547491 130.21194826 332.16448021 130.12312317 C317.29018306 129.12982188 317.29018306 129.12982188 303.72360611 133.54714966 C300.11954328 137.20946046 297.97118059 141.29483966 295.97603798 145.98403931 C294.36023223 149.32141035 292.00474751 151.98835464 289.5625 154.75 C289.08231572 155.30248161 288.60213144 155.85496323 288.10739613 156.42418671 C270.21206582 176.89836838 248.8933635 191.20199716 224 202 C222.2984375 202.74056641 222.2984375 202.74056641 220.5625 203.49609375 C194.49155215 213.75194456 162.42640176 216.28592545 135 211 C134.32130859 210.87641113 133.64261719 210.75282227 132.94335938 210.62548828 C100.09153388 204.54863715 72.28077641 188.59678708 48 166 C46.92492187 165.02353516 46.92492187 165.02353516 45.828125 164.02734375 C33.77716609 152.61411807 24.49342422 138.72149525 17 124 C16.68337402 123.38979004 16.36674805 122.77958008 16.04052734 122.15087891 C9.2480997 108.93845438 4.96812989 94.89396923 1.6875 80.4375 C1.52805908 79.7364917 1.36861816 79.0354834 1.2043457 78.31323242 C-0.88398735 68.56038301 -1.16337769 58.88486148 -1.125 48.9375 C-1.12306641 47.70555908 -1.12113281 46.47361816 -1.11914062 45.2043457 C-1.05132344 30.12914989 -0.53827711 15.06460122 0 0 Z " fill="#C0BC9D" transform="translate(139,526)"/>
<path d="M0 0 C7.54276938 4.234712 13.22048375 10.02003938 15.625 18.5 C16.02864807 22.66926369 15.97456494 26.81071799 15.91796875 30.99609375 C15.91372391 32.18477554 15.90947906 33.37345734 15.90510559 34.59815979 C15.88837251 38.37817457 15.8507289 42.15764755 15.8125 45.9375 C15.79744628 48.50715373 15.78375908 51.07681586 15.77148438 53.64648438 C15.73848648 59.93117305 15.68834004 66.21554781 15.625 72.5 C16.62192619 72.4800145 16.62192619 72.4800145 17.63899231 72.45962524 C24.59889235 72.32618301 31.55842507 72.23609932 38.51928711 72.17041016 C41.11188536 72.14036322 43.70438302 72.09951327 46.29663086 72.04736328 C50.03785105 71.97402012 53.77771963 71.94042022 57.51953125 71.9140625 C58.66581497 71.88309479 59.81209869 71.85212708 60.99311829 71.82022095 C69.13574895 71.81686723 75.01773508 73.65737875 81.625 78.5 C84.03528447 81.00566554 85.95327373 83.45124279 87.625 86.5 C88.16253906 87.46421875 88.70007813 88.4284375 89.25390625 89.421875 C91.54760772 94.9484139 91.09771811 100.93107556 91.0625 106.8125 C91.08248047 107.98490234 91.10246094 109.15730469 91.12304688 110.36523438 C91.1181577 119.1217429 89.44617905 125.72569699 85 133.25 C76.08106533 141.69951706 66.77670106 143.8085119 54.8828125 143.6953125 C53.19754959 143.69106766 53.19754959 143.69106766 51.47824097 143.68673706 C47.90205073 143.67557303 44.3261141 143.65047501 40.75 143.625 C38.32031613 143.61496533 35.89062831 143.60584033 33.4609375 143.59765625 C27.51553898 143.57564604 21.57028761 143.54220589 15.625 143.5 C15.63388245 144.13147446 15.64276489 144.76294891 15.6519165 145.41355896 C15.74076299 152.01641746 15.80088863 158.6191047 15.84472656 165.22241211 C15.86477812 167.68309432 15.89202647 170.14372925 15.92675781 172.60424805 C15.9755588 176.15164898 15.99803428 179.69841707 16.015625 183.24609375 C16.03627014 184.3370787 16.05691528 185.42806366 16.07818604 186.55210876 C16.08105746 196.44018551 13.27789877 203.5194781 6.55859375 210.7734375 C-0.02538931 216.65246884 -7.63277544 217.93383681 -16.20703125 217.83984375 C-23.67228456 217.03900893 -29.8546891 212.95605297 -34.90625 207.53515625 C-37.55467987 203.86539039 -38.98485289 199.77507605 -40.375 195.5 C-40.705 194.51 -41.035 193.52 -41.375 192.5 C-41.46222452 190.88904142 -41.49267272 189.27468984 -41.48852539 187.66137695 C-41.48841209 186.19019157 -41.48841209 186.19019157 -41.48829651 184.68928528 C-41.48313522 183.63295395 -41.47797394 182.57662262 -41.47265625 181.48828125 C-41.4712413 180.40491989 -41.46982635 179.32155853 -41.46836853 178.20536804 C-41.46276559 174.74105075 -41.45021258 171.2767978 -41.4375 167.8125 C-41.43248538 165.46549572 -41.42792241 163.11849044 -41.42382812 160.77148438 C-41.41279521 155.01430092 -41.3960542 149.25715506 -41.375 143.5 C-42.26583534 143.50999275 -42.26583534 143.50999275 -43.17466736 143.52018738 C-49.38828079 143.58685681 -55.60179163 143.63193115 -61.81567383 143.66479492 C-64.13082002 143.67982729 -66.445938 143.7002587 -68.76098633 143.72631836 C-72.09984324 143.76294596 -75.4383217 143.77978241 -78.77734375 143.79296875 C-80.31538918 143.81619453 -80.31538918 143.81619453 -81.88450623 143.83988953 C-91.98006106 143.84222299 -99.92673077 141.47665393 -107.375 134.5 C-114.0463259 126.82966845 -114.77291378 119.84117142 -114.80053711 109.85473633 C-114.81236913 107.83484164 -114.86153573 105.81807327 -114.91210938 103.79882812 C-114.96254319 94.56027046 -113.74639851 87.64506418 -107.66723633 80.48999023 C-100.46675838 73.48573058 -91.51057234 71.04377707 -81.65791321 71.04681396 C-80.64287216 71.06745911 -79.62783112 71.08810425 -78.58203125 71.109375 C-77.50998947 71.11503479 -76.43794769 71.12069458 -75.3334198 71.12652588 C-71.95096812 71.14869486 -68.56962475 71.19885438 -65.1875 71.25 C-62.87696856 71.27009017 -60.5664203 71.28833649 -58.25585938 71.3046875 C-52.62853603 71.34849534 -47.00184723 71.41520866 -41.375 71.5 C-41.38610306 70.90024353 -41.39720612 70.30048706 -41.40864563 69.68255615 C-41.52006649 63.38748205 -41.59500701 57.0926922 -41.6496582 50.796875 C-41.67465809 48.45366012 -41.70866949 46.11052207 -41.75219727 43.76757812 C-42.2541693 16.03509963 -42.2541693 16.03509963 -33.1875 5.5625 C-23.35329037 -3.06622587 -12.14493501 -5.5411266 0 0 Z " fill="#343434" transform="translate(312.375,436.5)"/>
<path d="M0 0 C9.57 0 19.14 0 29 0 C29 9.00677467 29 9.00677467 28.56030273 12.89501953 C28.46249008 13.77421051 28.36467743 14.65340149 28.26390076 15.55923462 C28.15489944 16.49101532 28.04589813 17.42279602 27.93359375 18.3828125 C27.81955704 19.37848236 27.70552032 20.37415222 27.58802795 21.3999939 C27.21223875 24.64262554 26.82653296 27.88393162 26.4375 31.125 C26.30472656 32.23625244 26.17195312 33.34750488 26.03515625 34.49243164 C22.61005192 62.88613877 17.63830794 90.89226648 10.81542969 118.67236328 C10.07929047 121.67642843 9.3578444 124.68370916 8.64030457 127.69226074 C5.08595567 142.55422441 1.13811484 157.18988063 -3.48999023 171.76025391 C-6.38650605 180.9152127 -9.11602395 190.10683392 -11.71612549 199.35021973 C-12.14551559 200.8734309 -12.57825503 202.3957031 -13.01483154 203.91687012 C-17.11995683 218.24642229 -20.63131166 232.94107077 -20.375 247.9375 C-20.3586853 249.3150647 -20.3586853 249.3150647 -20.34204102 250.72045898 C-19.80110851 274.41738514 -12.12709917 295.79844202 -2 317 C-1.6086084 317.83047852 -1.2172168 318.66095703 -0.81396484 319.51660156 C7.26455719 336.56454211 16.77918904 352.72012016 26.9453125 368.6015625 C29 372 29 372 29 374 C24.4104797 374.22340401 19.82415181 374.38617929 15.23046875 374.49438477 C13.67033758 374.5395005 12.11058403 374.60081719 10.55175781 374.67895508 C-2.33190732 375.30832952 -2.33190732 375.30832952 -6.22436523 372.25537109 C-7.81572899 369.9047757 -8.9134147 367.61895571 -10 365 C-10.80283359 363.58445228 -11.62148359 362.17773746 -12.45703125 360.78125 C-13.24701584 359.3568338 -14.03204403 357.92965928 -14.8125 356.5 C-15.23917969 355.72156738 -15.66585937 354.94313477 -16.10546875 354.14111328 C-16.98336452 352.53564191 -17.8591908 350.92903712 -18.73291016 349.32128906 C-19.90591359 347.17236486 -21.09700778 345.03463896 -22.29296875 342.8984375 C-28.37559843 331.8910731 -33.2054392 320.43356964 -37.88549805 308.76977539 C-38.61583953 306.95472082 -39.35653761 305.14379153 -40.10864258 303.33764648 C-42.2044828 298.26118502 -43.88485603 293.30087186 -45.0625 287.9375 C-45.30564941 286.84598633 -45.30564941 286.84598633 -45.55371094 285.73242188 C-45.88444267 284.22366141 -46.20982593 282.71371835 -46.52978516 281.20263672 C-46.83125036 279.79047727 -47.14255708 278.38036184 -47.46630859 276.97314453 C-51.99653572 257.22135428 -50.96234371 236.76048133 -47 217 C-46.86078125 216.30068359 -46.7215625 215.60136719 -46.578125 214.88085938 C-43.87265567 201.71674701 -39.8541576 188.86200754 -36 176 C-35.72333496 175.07622559 -35.44666992 174.15245117 -35.16162109 173.20068359 C-33.08015489 166.25784024 -33.08015489 166.25784024 -32.12939453 163.12182617 C-27.93486208 149.25123539 -24.1682258 135.28336368 -20.5625 121.25 C-20.31910889 120.30345551 -20.07571777 119.35691101 -19.82495117 118.38168335 C-16.18198947 104.15987894 -12.93455732 89.96264566 -10.43798828 75.48925781 C-10.05009425 73.28470509 -9.62981924 71.09178636 -9.18359375 68.8984375 C-4.61712986 46.18565897 -2.36136159 23.02327547 0 0 Z " fill="#232021" transform="translate(503,0)"/>
<path d="M0 0 C2.97764339 1.72631812 5.48057329 3.66053234 8 6 C8.61617187 6.56332031 9.23234375 7.12664062 9.8671875 7.70703125 C18.18093838 16.18134814 20.47271845 26.00898246 20.5625 37.5 C20.35738627 51.26093365 17.30591002 61.60779481 7.49609375 71.51953125 C-0.47144077 78.70550925 -10.17951329 81.45695943 -20.69140625 81.2421875 C-31.38321377 80.45955224 -39.99726985 75.53295586 -47.3125 67.75 C-56.6061286 56.08015954 -57.03181055 42.23206844 -56 28 C-54.50421237 19.54789883 -50.82455233 13.2211176 -45 7 C-44.47664062 6.43539063 -43.95328125 5.87078125 -43.4140625 5.2890625 C-31.45743423 -6.20096564 -14.48463722 -6.78901483 0 0 Z " fill="#343434" transform="translate(825,495)"/>
<path d="M0 0 C9.9149775 5.51674656 18.34207597 13.82386636 21.59472656 24.95996094 C24.17268265 37.47905486 23.93639983 53.07516656 17.04296875 64.13671875 C10.46859092 73.16086474 2.17140072 79.95107469 -8.95703125 82.13671875 C-20.53316182 83.39830903 -29.64750284 80.93162177 -39.26953125 74.44921875 C-46.67445676 68.4481437 -52.21517323 59.61821518 -53.30493164 50.09716797 C-54.85548658 22.72581373 -54.85548658 22.72581373 -45.95703125 11.13671875 C-45.42851563 10.42128906 -44.9 9.70585937 -44.35546875 8.96875 C-33.89160499 -3.11881675 -14.27558907 -6.8149797 0 0 Z " fill="#333333" transform="translate(668.95703125,493.86328125)"/>
<path d="M0 0 C10.47466577 5.38676471 16.16912326 12.21606523 21.02124023 22.84838867 C22.6655533 28.19240614 22.3280878 33.80945455 22.39624023 39.34838867 C22.45231445 41.03061523 22.45231445 41.03061523 22.50952148 42.74682617 C22.63595421 54.91246443 18.78771952 64.00528486 10.35327148 72.71948242 C1.11344167 81.15450294 -8.55692266 82.43095928 -20.65063477 82.16088867 C-25.78856202 81.89717983 -29.69442567 80.72539473 -33.97875977 77.84838867 C-34.67098633 77.40108398 -35.36321289 76.9537793 -36.07641602 76.49291992 C-44.91222879 70.33262428 -49.72803351 63.13223179 -52.97875977 52.84838867 C-53.63218372 48.48583257 -53.68222353 44.25282126 -53.60375977 39.84838867 C-53.63276367 38.22030273 -53.63276367 38.22030273 -53.66235352 36.55932617 C-53.59168757 24.71571428 -49.56614925 15.47204476 -41.38500977 6.97729492 C-37.89163954 3.88656965 -34.23822253 1.71384682 -29.97875977 -0.15161133 C-29.25043945 -0.51125977 -28.52211914 -0.8709082 -27.77172852 -1.24145508 C-19.2530392 -4.01747551 -8.17510424 -3.64300876 0 0 Z " fill="#333333" transform="translate(745.978759765625,570.151611328125)"/>
<path d="M0 0 C7.53503599 5.1776255 13.59538603 12.65423631 15.72265625 21.6484375 C16.16968103 26.25931411 16.18708697 30.83130258 16.16015625 35.4609375 C16.18013672 36.66814453 16.20011719 37.87535156 16.22070312 39.11914062 C16.21417029 51.1983573 13.53989476 59.75759871 5.0859375 68.48828125 C1.8494015 71.44663565 -1.35898071 73.69718789 -5.27734375 75.6484375 C-6.41171875 76.2465625 -7.54609375 76.8446875 -8.71484375 77.4609375 C-17.28461262 80.33997576 -27.77562056 80.19560891 -36.05834961 76.54516602 C-46.45708497 71.31088412 -52.99854698 64.44643107 -57.27734375 53.6484375 C-59.03429167 47.95576795 -58.54464693 41.85761597 -58.58984375 35.9609375 C-58.61884766 34.71892578 -58.64785156 33.47691406 -58.67773438 32.19726562 C-58.75506408 20.97256095 -55.87563463 12.95906815 -48.27734375 4.6484375 C-34.18096511 -8.84223738 -16.51751265 -9.80284627 0 0 Z " fill="#333333" transform="translate(751.27734375,419.3515625)"/>
<path d="M0 0 C0.99 0.495 0.99 0.495 2 1 C2.67100043 9.76028338 0.82623846 16.21713491 -3.625 23.75 C-9.06150906 28.900377 -15.74449949 33.13072032 -23.27587891 33.11352539 C-24.92736435 33.11341209 -24.92736435 33.11341209 -26.61221313 33.11329651 C-27.80494843 33.10813522 -28.99768372 33.10297394 -30.2265625 33.09765625 C-31.44451508 33.0962413 -32.66246765 33.09482635 -33.91732788 33.09336853 C-37.8199099 33.08775639 -41.72243523 33.07520179 -45.625 33.0625 C-48.26562417 33.05748657 -50.90624924 33.05292339 -53.546875 33.04882812 C-60.03127195 33.037783 -66.51562635 33.02051018 -73 33 C-73 28.38 -73 23.76 -73 19 C-71.441604 18.9906543 -69.88320801 18.98130859 -68.27758789 18.97167969 C-62.46822042 18.93165789 -56.65937572 18.86586411 -50.8503418 18.79248047 C-48.34129578 18.76434163 -45.83216229 18.74309205 -43.32299805 18.72900391 C-39.70576419 18.70747702 -36.08957432 18.6607736 -32.47265625 18.609375 C-31.35979752 18.60814636 -30.24693878 18.60691772 -29.10035706 18.60565186 C-19.73814103 18.43156042 -12.50923557 16.0766904 -5.5078125 9.7265625 C-2.93808936 6.78402979 -1.54084877 3.57476914 0 0 Z " fill="#141212" transform="translate(401,546)"/>
<path d="M0 0 C1.97677878 1.88238204 3.2841647 3.45669327 4.75 5.8125 C8.8983631 11.68934773 13.99630263 15.96404423 21 18 C25.0908825 18.46113349 29.16336189 18.48831378 33.27734375 18.51171875 C34.4438295 18.52966995 35.61031525 18.54762115 36.81214905 18.56611633 C40.52056312 18.62009379 44.22884938 18.65407574 47.9375 18.6875 C50.45900211 18.72068405 52.98048738 18.75517471 55.50195312 18.79101562 C61.66787637 18.87581353 67.83376252 18.94268531 74 19 C74 23.62 74 28.24 74 33 C66.49273624 33.12414067 58.98607776 33.21459764 51.47802734 33.2746582 C48.92714013 33.29971127 46.37632405 33.33376328 43.82568359 33.37719727 C40.14663073 33.43825144 36.46853179 33.46630348 32.7890625 33.48828125 C31.09470566 33.52699089 31.09470566 33.52699089 29.36611938 33.56648254 C20.93020668 33.56943142 14.17938448 31.8522145 7.85684204 26.02461243 C1.0242801 18.79119802 -0.33695687 12.37527349 -0.10546875 2.59765625 C-0.07066406 1.74042969 -0.03585938 0.88320313 0 0 Z " fill="#151313" transform="translate(198,546)"/>
<path d="M0 0 C0.33 0 0.66 0 1 0 C1.57101479 9.23140584 0.9873855 16.68961102 -4.6953125 24.2578125 C-9.92453598 29.99513866 -16.10434454 33.40867907 -23.90231323 34.35055542 C-27.05960508 34.45929935 -30.19300065 34.45067983 -33.3515625 34.390625 C-34.49160736 34.38496521 -35.63165222 34.37930542 -36.8062439 34.37347412 C-40.41294067 34.35125659 -44.0186084 34.30108613 -47.625 34.25 C-50.08462097 34.22991617 -52.54425767 34.21166872 -55.00390625 34.1953125 C-61.00331024 34.15485799 -67.0005165 34.07653487 -73 34 C-73 45.88 -73 57.76 -73 70 C-73.33 70 -73.66 70 -74 70 C-74 54.49 -74 38.98 -74 23 C-68.65167969 22.96132813 -68.65167969 22.96132813 -63.1953125 22.921875 C-59.71671884 22.88338982 -56.23827017 22.83825027 -52.75976562 22.79248047 C-50.35456338 22.76437023 -47.94927047 22.74310658 -45.54394531 22.72900391 C-42.07309886 22.70743692 -38.60333127 22.66071413 -35.1328125 22.609375 C-33.53688766 22.60753204 -33.53688766 22.60753204 -31.90872192 22.60565186 C-24.15101325 22.45572447 -17.15273277 21.14833804 -10.8442688 16.36566162 C-9 15 -9 15 -7 15 C-6.71253906 14.42378906 -6.42507813 13.84757813 -6.12890625 13.25390625 C-5.41176327 11.82210175 -4.69083993 10.39217964 -3.96484375 8.96484375 C-3.45630859 7.96130859 -3.45630859 7.96130859 -2.9375 6.9375 C-2.42509766 5.93009766 -2.42509766 5.93009766 -1.90234375 4.90234375 C-0.88509619 2.85671686 -0.88509619 2.85671686 0 0 Z " fill="#C0BB9D" transform="translate(402,557)"/>
<path d="M0 0 C2 2 2 2 3.3125 4.75 C7.34508749 12.5164648 11.99733811 15.73387295 20 19 C23.03110225 19.90316434 25.79426067 20.14835006 28.95214844 20.20532227 C30.42322052 20.2352401 30.42322052 20.2352401 31.92401123 20.26576233 C32.97518127 20.28247482 34.02635132 20.29918732 35.109375 20.31640625 C36.19132141 20.33718735 37.27326782 20.35796844 38.38800049 20.37937927 C41.84193613 20.44472931 45.29594737 20.50369229 48.75 20.5625 C51.09245571 20.60569904 53.4349038 20.64931378 55.77734375 20.69335938 C61.51815182 20.80039587 67.25903588 20.90170448 73 21 C73 24.63 73 28.26 73 32 C65.91996284 32.09936358 58.84033752 32.17170315 51.75976562 32.21972656 C49.35442019 32.23976034 46.94912297 32.26699522 44.54394531 32.30175781 C41.07344622 32.35063808 37.60359474 32.37305205 34.1328125 32.390625 C33.06886261 32.41127014 32.00491272 32.43191528 30.90872192 32.45318604 C22.39287053 32.45570768 13.82816083 30.69646215 7.3828125 24.65625 C1.52393382 17.63883599 -0.69708489 11.34775728 -0.2109375 2.23828125 C-0.10652344 1.13033203 -0.10652344 1.13033203 0 0 Z " fill="#C0BB9C" transform="translate(198,559)"/>
<path d="M0 0 C0.27714844 0.56976562 0.55429687 1.13953125 0.83984375 1.7265625 C4.9695378 9.81909428 9.93116988 16.5490737 18.84765625 19.640625 C26.74056421 20.95849711 35.02038811 21.13079071 42 17 C42.87011719 16.55914063 42.87011719 16.55914063 43.7578125 16.109375 C49.96985597 12.50585195 52.22798995 6.36648463 55 0 C55.33 0 55.66 0 56 0 C56.57241981 11.17808681 55.80606404 18.5126032 48.75 27.3125 C43.72364766 32.73879866 37.65309077 35.52241004 30.3359375 36.2734375 C20.84879468 36.59885401 14.20704826 34.15777466 7.125 27.8125 C0.33186276 20.32880744 -0.43376676 12.53118659 -0.140625 2.7109375 C-0.09421875 1.81632813 -0.0478125 0.92171875 0 0 Z " fill="#161414" transform="translate(272,618)"/>
<path d="M0 0 C1.07230241 2.12012304 2.11422858 4.24649325 3.11328125 6.40234375 C5.50181748 11.45172491 7.64996397 15.35810937 12 19 C12.598125 19.50273437 13.19625 20.00546875 13.8125 20.5234375 C23.4112572 28.20994229 33.04010351 29.26890884 45 28 C51.94530934 26.48732139 56.82668526 23.77536746 62 19 C62.66 19 63.32 19 64 19 C64.2784375 18.41863281 64.556875 17.83726562 64.84375 17.23828125 C65.94388632 15.10862547 67.16970143 13.17889206 68.5 11.1875 C70.83465265 7.51679244 72.03122159 4.22739669 73 0 C73.33 0 73.66 0 74 0 C74.69427099 8.89052569 73.32271922 16.41738921 68.01171875 23.7421875 C63.58978037 28.88965981 59.08111468 32.97175261 53 36 C51.865625 36.598125 50.73125 37.19625 49.5625 37.8125 C40.99273113 40.69153826 30.50172319 40.54717141 22.21899414 36.89672852 C11.82025878 31.66244662 5.27879677 24.79799357 1 14 C0.00285592 10.85899616 -0.10576828 8.03838955 -0.0625 4.75 C-0.05347656 3.85796875 -0.04445313 2.9659375 -0.03515625 2.046875 C-0.02355469 1.37140625 -0.01195312 0.6959375 0 0 Z " fill="#171515" transform="translate(693,459)"/>
<path d="M0 0 C1.899623 2.8494345 3.16230883 5.57197493 4.5625 8.6875 C9.23968319 18.01932573 15.94076328 23.48808939 25.69140625 27.15234375 C36.50637351 29.92312049 47.29500839 28.54072401 56.90234375 22.87890625 C58.290758 21.9521652 59.64852199 20.97982156 61 20 C61.99 19.67 62.98 19.34 64 19 C65.08664524 17.15557485 65.08664524 17.15557485 66 15 C66.81950016 13.67881864 67.6531589 12.36632547 68.5 11.0625 C70.3601869 8.1268068 71.86462521 5.30290849 73 2 C73.33 2 73.66 2 74 2 C75.14275857 11.56531246 72.00186001 18.82665533 66.171875 26.36328125 C59.62960864 33.42414189 50.37885275 38.26635471 40.7734375 39.37109375 C29.72358924 39.58701033 20.47821477 36.81580843 11.8125 29.79296875 C4.71160043 22.7685875 -0.13100957 14.55529598 -0.1875 4.5 C-0.14004281 2.99944875 -0.08293697 1.49900891 0 0 Z " fill="#181615" transform="translate(616,537)"/>
<path d="M0 0 C1.06320672 2.09273722 2.08446849 4.18886774 3.04296875 6.33203125 C7.89253331 16.8421797 14.50489553 22.21050362 25 27 C34.24761073 30.17947203 45.80172797 28.69398119 54.3828125 24.54296875 C62.68930122 19.64585973 69.63005224 12.37325791 72.375 2.9375 C72.58125 1.968125 72.7875 0.99875 73 0 C73.33 0 73.66 0 74 0 C74.59670764 10.58603555 72.64969807 17.78082868 65.8203125 25.99609375 C59.3770595 33.08920274 50.60538635 38.35454981 40.921875 39.30078125 C27.87241301 39.34899355 18.94848272 36.23538033 9.21484375 27.375 C3.32760207 21.11133622 -0.30139937 13.43769113 -0.3125 4.8125 C-0.23390309 3.20687741 -0.13939469 1.60149009 0 0 Z " fill="#171515" transform="translate(770,537)"/>
<path d="M0 0 C0.66 0 1.32 0 2 0 C2.27972656 0.64066406 2.55945313 1.28132812 2.84765625 1.94140625 C8.04413355 13.15309842 14.63460561 18.22300772 26 23 C35.47758867 25.97300785 45.04118228 23.55931407 54 20 C56.21273565 18.80786723 57.99692368 17.54082794 60 16 C60.7425 15.67 61.485 15.34 62.25 15 C64.58320881 13.66673782 64.93492339 12.46298967 66 10 C69.45382586 3.18205805 69.45382586 3.18205805 73 2 C72.67548422 12.05998924 68.28775919 19.59541283 60.99609375 26.46484375 C50.71119702 34.37475455 39.48712134 35.06899313 27 34 C23.5420885 33.18555247 20.93752206 31.97259797 18 30 C16.96166016 29.32904297 16.96166016 29.32904297 15.90234375 28.64453125 C7.85905843 23.03678279 2.65126374 16.53845462 0 7 C-0.27079273 4.54539493 -0.21508328 2.4734577 0 0 Z " fill="#161414" transform="translate(694,618)"/>
<path d="M0 0 C0.28488281 0.58007812 0.56976563 1.16015625 0.86328125 1.7578125 C4.92659797 9.77273963 9.3837204 15.28454141 17.1875 19.875 C25.31575128 22.27350038 33.04037513 21.7952692 40.74609375 18.2578125 C46.78449221 14.88803035 50.40570013 11.18692322 53.17578125 4.83203125 C54 3 54 3 56 0 C56.90084461 9.40882151 55.28578576 16.11809823 50 24 C45.18047394 29.7145809 38.47924413 33.41393067 31.07421875 34.3828125 C21.04903008 34.76496709 14.03704585 31.69460014 6.7265625 24.9375 C1.80082336 19.40997372 -0.14093378 13.10684158 -0.0625 5.8125 C-0.05347656 4.72582031 -0.04445313 3.63914062 -0.03515625 2.51953125 C-0.02355469 1.68808594 -0.01195312 0.85664062 0 0 Z " fill="#BFBA9C" transform="translate(272,632)"/>
<path d="M0 0 C0.33 0 0.66 0 1 0 C1.0093457 0.66942627 1.01869141 1.33885254 1.02832031 2.02856445 C1.08270392 5.12389799 1.16621253 8.21782812 1.25 11.3125 C1.26417969 12.36501953 1.27835938 13.41753906 1.29296875 14.50195312 C1.63630286 25.66031173 4.35684296 34.62399625 12.2734375 42.6953125 C21.33243373 50.35263023 30.28505755 53.33177391 41.94140625 52.55078125 C51.51466117 51.48459225 59.59773881 47.14538079 66 40 C73.25100679 30.87150038 74.30035206 22.95899555 74.625 11.5625 C74.66367187 10.44939453 74.70234375 9.33628906 74.7421875 8.18945312 C74.83590966 5.45979524 74.92162294 2.73013437 75 0 C75.33 0 75.66 0 76 0 C77.00933468 33.21099299 77.00933468 33.21099299 67.75 44.16015625 C67.1725 44.76730469 66.595 45.37445313 66 46 C65.34 46.69996094 64.68 47.39992188 64 48.12109375 C56.16867703 55.74264914 48.1935982 58.35075664 37.4375 58.5 C26.35927636 58.33403864 19.30798417 55.16107817 11.26171875 47.41796875 C1.42110741 36.89752243 -0.50950604 25.90645666 -0.1875 11.8125 C-0.17396484 10.66974609 -0.16042969 9.52699219 -0.14648438 8.34960938 C-0.1115423 5.56589037 -0.06249011 2.78321336 0 0 Z " fill="#B6B297" transform="translate(692,445)"/>
<path d="M0 0 C0.33 0 0.66 0 1 0 C0.64379509 9.26132759 -3.37291517 17.5616633 -9.625 24.375 C-18.23202728 32.33400785 -28.1119373 35.39271868 -39.546875 35.27734375 C-50.34939896 34.40972022 -58.46069612 28.90994645 -65.75 21.25 C-70.43921802 15.65942199 -73.32672559 9.35786023 -73 2 C-71.28013242 4.57980137 -70.17083119 6.87161481 -68.9375 9.6875 C-64.67715843 18.27083521 -57.63237312 23.27914952 -49 27 C-41.08492345 29.63835885 -28.63430665 29.28692098 -20.87890625 26.0390625 C-9.65657893 19.83295217 -4.39870796 11.85315552 0 0 Z " fill="#BCB79A" transform="translate(767,623)"/>
<path d="M0 0 C0.33 0 0.66 0 1 0 C0.50094917 10.31371723 -3.10642334 18.07764583 -10.6796875 25.17578125 C-20.97981322 33.27369154 -31.21094195 35.34411216 -44 34 C-54.98524567 31.38749958 -63.44401727 24.34485605 -69.5625 15 C-72.17875842 10.29810459 -72.82755133 6.34590884 -73 1 C-70.61899418 3.38100582 -69.75411459 5.61723651 -68.375 8.6875 C-63.69630035 18.13530896 -56.72299816 23.16155701 -47 27 C-36.07838945 29.77010154 -25.48310319 28.34204753 -15.78515625 22.71484375 C-7.59897463 17.07407753 -2.38585376 9.61158228 0 0 Z " fill="#BEB99C" transform="translate(843,547)"/>
<path d="M0 0 C1.71395649 2.57093474 2.9522834 4.96423503 4.25 7.75 C8.53407355 16.3056934 13.34514855 20.93326257 22 25 C22.92232422 25.48146484 22.92232422 25.48146484 23.86328125 25.97265625 C31.88333377 29.66497165 41.65171612 29.10846989 49.875 26.375 C60.61822759 21.87893559 67.93897209 14.42908827 72.3359375 3.72265625 C72.55507813 3.15417969 72.77421875 2.58570313 73 2 C74.50875427 6.40556248 73.26903739 9.12150583 71.4921875 13.26953125 C66.29955013 22.77124204 58.27181054 29.36163464 48.125 32.8125 C38.97814728 35.27403835 28.71523782 34.84972494 20.171875 30.58984375 C9.68076499 24.29804417 3.53553419 16.81226859 0 5 C-0.12890625 2.13671875 -0.12890625 2.13671875 0 0 Z " fill="#BDB99B" transform="translate(616,547)"/>
<path d="M0 0 C0.33 0 0.66 0 1 0 C1.33 11.88 1.66 23.76 2 36 C1.34 36 0.68 36 0 36 C0 37.98 0 39.96 0 42 C-0.33 42 -0.66 42 -1 42 C-0.67 28.14 -0.34 14.28 0 0 Z " fill="#B0CCBA" transform="translate(139,526)"/>
<path d="M0 0 C0.33 0 0.66 0 1 0 C0.05125409 9.32933479 0.05125409 9.32933479 -2 13 C-4.125 14.3125 -4.125 14.3125 -6 15 C-4 10 -2 5 0 0 Z " fill="#B3AF94" transform="translate(767,623)"/>
<path d="M0 0 C0.33 0 0.66 0 1 0 C0.88490339 1.41750563 0.75746342 2.83401169 0.625 4.25 C0.55539062 5.03890625 0.48578125 5.8278125 0.4140625 6.640625 C-0.02179718 9.12420279 -0.68357147 10.85610211 -2 13 C-4.125 14.25 -4.125 14.25 -6 15 C-4.93788265 12.22215463 -3.79059809 9.58957226 -2.4375 6.9375 C-1.27083402 4.55344342 -0.49664269 2.58254199 0 0 Z " fill="#B1AC91" transform="translate(843,547)"/>
<path d="M0 0 C1.38609004 3.15020465 0.89180331 4.31918022 -0.25 7.6875 C-2 11 -2 11 -5 12 C-3.41037341 7.96479403 -1.71767682 3.98188718 0 0 Z " fill="#B5B095" transform="translate(689,549)"/>
</svg>
